<svg width="16" height="20" viewBox="0 0 16 20" fill="none" xmlns="http://www.w3.org/2000/svg">
<rect width="16" height="20" fill="#F5F5F5"/>
<g id="Ready for Dev">
<path d="M-807 -634C-807 -635.105 -806.105 -636 -805 -636H2047C2048.1 -636 2049 -635.105 2049 -634V4673C2049 4674.1 2048.1 4675 2047 4675H-805C-806.105 4675 -807 4674.1 -807 4673V-634Z" fill="#EEEEEE"/>
<path d="M-805 -635H2047V-637H-805V-635ZM2048 -634V4673H2050V-634H2048ZM2047 4674H-805V4676H2047V4674ZM-806 4673V-634H-808V4673H-806ZM-805 4674C-805.552 4674 -806 4673.55 -806 4673H-808C-808 4674.66 -806.657 4676 -805 4676V4674ZM2048 4673C2048 4673.55 2047.55 4674 2047 4674V4676C2048.66 4676 2050 4674.66 2050 4673H2048ZM2047 -635C2047.55 -635 2048 -634.552 2048 -634H2050C2050 -635.657 2048.66 -637 2047 -637V-635ZM-805 -637C-806.657 -637 -808 -635.657 -808 -634H-806C-806 -634.552 -805.552 -635 -805 -635V-637Z" fill="black" fill-opacity="0.1"/>
<g id="Desktop - 4">
<rect width="1440" height="4692" transform="translate(-520 -491)" fill="black"/>
<g id="Frame 20">
<g id="Frame 19">
<g id="Frame 16">
<rect x="-16" y="-12" width="121" height="44" rx="22" fill="white" fill-opacity="0.25"/>
<g id="address-book-solid 1" clip-path="url(#clip0_0_1)">
<path id="Vector" d="M2.46154 0.15387C1.10385 0.15387 0 1.25772 0 2.61541V17.3846C0 18.7423 1.10385 19.8462 2.46154 19.8462H13.5385C14.8962 19.8462 16 18.7423 16 17.3846V2.61541C16 1.25772 14.8962 0.15387 13.5385 0.15387H2.46154ZM6.76923 11.2308H9.23077C10.9308 11.2308 12.3077 12.6077 12.3077 14.3077C12.3077 14.6462 12.0308 14.9231 11.6923 14.9231H4.30769C3.96923 14.9231 3.69231 14.6462 3.69231 14.3077C3.69231 12.6077 5.06923 11.2308 6.76923 11.2308ZM5.53846 7.53849C5.53846 6.88564 5.7978 6.25954 6.25943 5.79791C6.72106 5.33629 7.34716 5.07695 8 5.07695C8.65284 5.07695 9.27894 5.33629 9.74057 5.79791C10.2022 6.25954 10.4615 6.88564 10.4615 7.53849C10.4615 8.19133 10.2022 8.81743 9.74057 9.27906C9.27894 9.74068 8.65284 10 8 10C7.34716 10 6.72106 9.74068 6.25943 9.27906C5.7978 8.81743 5.53846 8.19133 5.53846 7.53849ZM18.4615 3.23079C18.4615 2.89233 18.1846 2.61541 17.8462 2.61541C17.5077 2.61541 17.2308 2.89233 17.2308 3.23079V5.69233C17.2308 6.03079 17.5077 6.30772 17.8462 6.30772C18.1846 6.30772 18.4615 6.03079 18.4615 5.69233V3.23079ZM17.8462 7.53849C17.5077 7.53849 17.2308 7.81541 17.2308 8.15387V10.6154C17.2308 10.9539 17.5077 11.2308 17.8462 11.2308C18.1846 11.2308 18.4615 10.9539 18.4615 10.6154V8.15387C18.4615 7.81541 18.1846 7.53849 17.8462 7.53849ZM18.4615 13.0769C18.4615 12.7385 18.1846 12.4616 17.8462 12.4616C17.5077 12.4616 17.2308 12.7385 17.2308 13.0769V15.5385C17.2308 15.8769 17.5077 16.1539 17.8462 16.1539C18.1846 16.1539 18.4615 15.8769 18.4615 15.5385V13.0769Z" fill="white"/>
</g>
</g>
</g>
</g>
</g>
</g>
<defs>
<clipPath id="clip0_0_1">
<rect width="16" height="19.6923" fill="white" transform="translate(0 0.15387)"/>
</clipPath>
</defs>
</svg>
